<svg xmlns="http://www.w3.org/2000/svg" viewBox="0 0 500 500"><g id="freepik--background-simple--inject-10"><path d="M53.91,127.54l1.9-4.39c16-37,50.72-62.81,90.6-65.75a103.21,103.21,0,0,1,15.43,0c37,2.74,72,25.63,89.8,58.67,10.44,19.43,15.82,42.71,32.53,57C305.91,191.61,338,187.88,366,183.13s60.09-8.4,81.76,10.26c13.57,11.69,19.9,30.09,21.41,48,4,47.51-23.08,94.2-62,120.91s-87.86,35.36-134.87,32.44c-65.86-4.1-131.67-31.19-175.84-80.94S32.74,190.71,53.91,127.54Z" style="fill:#f5f5f5"></path><circle cx="351.53" cy="96.69" r="39.58" transform="translate(178.86 417.79) rotate(-77.11)" style="fill:#f5f5f5"></circle></g><g id="freepik--Floor--inject-10"><path d="M473.54,305.69c0,.14-100.09.26-223.53.26s-223.55-.12-223.55-.26,100.07-.26,223.55-.26S473.54,305.55,473.54,305.69Z" style="fill:#263238"></path></g><g id="freepik--pie-slice--inject-10"><path d="M394.47,220.27c-6.5-9-15.28-16.18-24.29-22.73-21.08-15.32-44.18-28.1-69-36.06-10.74-3.45-22.2-6-33.24-3.69-11.52,2.41-21.25,9.79-31.67,15.25-20.69,10.84-45.39,14.72-62.8,30.3-4.53,4-8.42,8.8-13,12.81C143.63,231,118.31,235.29,105,253.36l-16.15,31c18,6.13,37.33,6.46,56.3,5.94,29.75-.8,59.41-3.52,89.05-6.24l147.2-13.49c4.8-.44,9.83-.95,13.87-3.59,5-3.29,7.62-9.38,8.37-15.34C405,240.54,401,229.32,394.47,220.27Z" style="fill:#FF81AE"></path><g style="opacity:0.1"><path d="M394.47,220.27c-6.5-9-15.28-16.18-24.29-22.73-21.08-15.32-44.18-28.1-69-36.06-10.74-3.45-22.2-6-33.24-3.69-11.52,2.41-21.25,9.79-31.67,15.25-20.69,10.84-45.39,14.72-62.8,30.3-4.53,4-8.42,8.8-13,12.81C143.63,231,118.31,235.29,105,253.36l-16.15,31c18,6.13,37.33,6.46,56.3,5.94,29.75-.8,59.41-3.52,89.05-6.24l147.2-13.49c4.8-.44,9.83-.95,13.87-3.59,5-3.29,7.62-9.38,8.37-15.34C405,240.54,401,229.32,394.47,220.27Z" style="fill:#fff"></path></g><g style="opacity:0.2"><path d="M321.28,178.33c-1.58-2.61-4.83-3.59-7.78-4.35l-19.81-5.12c-5.56-1.44-11.2-2.89-16.95-2.87s-11.71,1.64-15.85,5.64l.84,1L241.8,276.2a3,3,0,0,0,3.87-.9,8.89,8.89,0,0,0,1.51-4c.18-.95.38-1.92.57-2.92A68.28,68.28,0,0,1,268.62,276c.7.4,1.57.81,2.27.4s.69-1.69.33-2.56c-1.75-4.16-6.47-6.11-10.8-7.35a98.53,98.53,0,0,0-11.78-2.58c5.13-25.25,13.51-62.88,18.54-87.76a23.36,23.36,0,0,0,8.19-1.44c1.2,7.28,7,13.29,13.81,16.06s14.57,2.65,21.78,1.07q-5.64,22.86-9.38,46.12a11.72,11.72,0,0,0-.06,5,4,4,0,0,0,3.53,3.11c2.35,0,3.75-2.57,4.57-4.78a213.37,213.37,0,0,0,12.57-55.92C322.4,183,322.53,180.4,321.28,178.33Z"></path></g><path d="M86.36,290.22l53.11-10.77,37.9-2.39,64.89-.93,31.7.61s58.72-5.13,60.4-5.06,64.38-4.81,64.38-4.81l6.77,16.41s-3.36,37.69-3.36,39.37-12.29,45.27-12.29,45.27L363,374.63l-101.09,2.79H87.48l-3.57-6.73c-7.12-10.23-7.06-32.24,1.68-42.27v-3s-3.54-4.46-4.46-14S86.36,290.22,86.36,290.22Z" style="fill:#FF81AE"></path><g style="opacity:0.1"><path d="M275.08,286.2c-1.6-1.39-4.3-.43-5.45,1.36s-1.19,4-1.18,6.17q0,6.34,0,12.7c0,2.37.15,5.07,2,6.54s4.49,1,6.45-.15,3.44-3,5.15-4.53c5.6-5,13.37-6.44,20.73-7.74l49.29-8.68c9.1-1.6,18.23-3.21,27-6.12a7.13,7.13,0,0,0,3.57-2.08c.85-1.11.85-3-.36-3.69a3.83,3.83,0,0,0-1.87-.34c-35.42-.46-71-.9-106,4.37"></path></g><g style="opacity:0.2"><path d="M357.58,231.54c1.26-7.32,4.91-14.68,2.87-21.82-.43-1.52-1.53-3.22-3.1-3.05s-2.32,2.23-2.57,3.89a528,528,0,0,0-5.33,54.85l4,4.6c2.75-2.3,3.7-6.1,4-9.68C358.37,250.76,355.94,241,357.58,231.54Z"></path></g><path d="M432.49,208.62c-3.61-2.74-7.8-4.73-11.06-7.89-4.17-4-6.46-9.61-10-14.2-6.47-8.37-22.17-15-32.71-14-2.92-10.11-9.61-16.48-20.89-21.29A42.85,42.85,0,0,0,340.75,148s-3.22-7.36-5.62-9.82c-7.87-8.1-22.19-10-32.13-6.36-11.13-9.36-21.38-13.92-38.73-10.16-17.87,3.88-22.73,23.2-17.87,36.9,7.09,20,32.53,9.62,31.92,8.34C291.44,196.21,317,181.79,317,181.79l-15.5,88.65,2.14,12.84,13.22-3.18c11.37,1.66,26.41,2.2,37.71.14l-1.1-9.63c-3.29-15.79,4.82-62.08,4.82-62.08,1.86,18.2,18.45,20.57,27,18.32,0,0-3.94,5.53-1.61,15.8S395.88,260,395.88,260l-2.53,23.25c-1.17,11.23-1.07,31.15-3.2,41.31s-1.07,33.12-16,39-29.39,3.21-51.83,3.74S256,370,234.13,373.21s-44.88-2.67-59.35-4.81-23.47-1.07-49.65,2.14-42.55-2.05-42.55-2.05c-4.89,2.24-8.89,18,2,20.21,12.41,2.5,306.68-3.74,314.7-12.29s15.69-86.85,15.69-86.85C428.25,280.45,440,268,444.64,252.5S445.36,218.38,432.49,208.62Z" style="fill:#ffbf9d"></path><g style="opacity:0.1"><path d="M384.35,303.53c-.49-2.56-3-4.79-5.44-5.56a12.11,12.11,0,0,0-6,0c-1.75.36-3.27,1.21-5.76,2.63s-4.44,4.19-4,7a6.93,6.93,0,0,0,4.95,5.2,17.27,17.27,0,0,0,13.79-3.05A6.93,6.93,0,0,0,384.35,303.53Z"></path></g><g style="opacity:0.30000000000000004"><path d="M232.67,304.45c-.48-2.55-2.95-4.79-5.44-5.55a12.07,12.07,0,0,0-6,0c-1.75.35-3.27,1.21-5.76,2.63s-4.45,4.19-4,7a6.93,6.93,0,0,0,5,5.21,17.37,17.37,0,0,0,13.79-3.05A7,7,0,0,0,232.67,304.45Z" style="fill:#fff"></path></g><g style="opacity:0.30000000000000004"><path d="M103.16,303.35A7.57,7.57,0,0,0,97,299.48,8.9,8.9,0,0,0,92.16,301c-1.32.8-2.3,2-3.89,4a7.64,7.64,0,0,0-1.14,7.73,6.57,6.57,0,0,0,5.62,3.67,10.5,10.5,0,0,0,6.06-2.05,11.49,11.49,0,0,0,4.25-4.44A7.56,7.56,0,0,0,103.16,303.35Z" style="fill:#fff"></path></g><g style="opacity:0.1"><path d="M292.19,316a4.42,4.42,0,0,0-4.3-.39,6.63,6.63,0,0,0-2.53,2.15,11.08,11.08,0,0,0-1.5,3.19,4.1,4.1,0,0,0,.83,4.42,3.85,3.85,0,0,0,4,.42,9.63,9.63,0,0,0,4.75-6.26A3.85,3.85,0,0,0,292.19,316Z"></path></g><g style="opacity:0.1"><path d="M384.48,320.82a5.38,5.38,0,0,0-3.64-3.72,8.17,8.17,0,0,0-4,0,13.21,13.21,0,0,0-3.86,1.77,4.9,4.9,0,0,0-2.69,4.7,4.65,4.65,0,0,0,3.31,3.49,11.66,11.66,0,0,0,9.24-2A4.66,4.66,0,0,0,384.48,320.82Z"></path></g><g style="opacity:0.30000000000000004"><path d="M372.31,350.37a5,5,0,0,0-2.88-3.72,5.07,5.07,0,0,0-3.16,0,9.71,9.71,0,0,0-3,1.76,5.27,5.27,0,0,0-2.13,4.71,4.32,4.32,0,0,0,2.62,3.48,6,6,0,0,0,4-.07,7,7,0,0,0,3.34-2A5.34,5.34,0,0,0,372.31,350.37Z"></path></g><g style="opacity:0.1"><path d="M251.19,314a5.62,5.62,0,0,0-6.44-3.17c-2.53.65-3.11,2.75-3.92,6-.82,1.63-2.87,2.17-4.69,2.36s-3.81.27-5.17,1.49a4.48,4.48,0,0,0-1,4.91,6.28,6.28,0,0,0,3.85,3.43,10.45,10.45,0,0,0,5.27.19,16.15,16.15,0,0,0,11.61-9.33A7.87,7.87,0,0,0,251.19,314Z"></path></g><g style="opacity:0.30000000000000004"><path d="M195.78,320a4.85,4.85,0,0,0-.87,9.61,5,5,0,0,0,5.51-3.47C201,323.83,199.72,320,195.78,320Z"></path></g><g style="opacity:0.2"><path d="M186,246.14c-1.61-3.13-4.89-5.11-8.28-6s-6.95-.94-10.47-1.08c-11.71-.49-23.3-2.52-34.85-4.54l.61.94c-.95,2.92.63,6.19,3,8.13s5.43,2.84,8.38,3.69l29.35,8.51c3.44,1,7.43,1.91,10.38-.13S187.57,249.27,186,246.14Z"></path></g><path d="M306,243.47l1.27-6.25s40.21,15.17,45.27,21l.39,11.86Z" style="fill:#ff9a6c"></path><path d="M167.12,208a3.51,3.51,0,0,1,1.82-.09c11.17,2.47,121.71,27,146.92,37.84,21.25,9.11,36.11,22.22,37.56,24.84.66,1.19,2.3,4.14,3.9,7a5.07,5.07,0,0,1-3.91,7.51c-8.26.86-21.71,2-32.53,2-14.76-.1-34,.32-41.81.84a3.27,3.27,0,0,1-3.34-2.3c-1.38-4.52-4.68-13.92-9-17.16-5-3.78-108.37-25.31-134.73-30.76a3.47,3.47,0,0,1-1.8-5.81c3.07-3.17,7.52-7.62,12.51-12.09C148.92,214.25,163.36,209.26,167.12,208Z" style="fill:#ffbf9d"></path><polygon points="244.95 263.28 251.78 227.33 256.88 228.6 251.51 264.89 244.95 263.28" style="fill:#ff9a6c"></polygon><path d="M251.58,260s21.27-2.21,28.41,14.27l2.73,9.63-8.17-1.32s-3.73-10.06-6.1-12.47c-3.31-3.37-21.59-5.91-22-6.83S251.58,260,251.58,260Z" style="fill:#ff9a6c"></path><path d="M201.31,187.64s-25.47,82.87-26.2,86.86c-.47,2.54-.34,9.06-.19,13.46a4.49,4.49,0,0,0,4.48,4.33h13.44c6.79,0,12.83-.89,17.47-.93l29.2-2.23a3,3,0,0,0,2.75-3v-9.73s16.47-87.27,22-105.1c-5.65-.44-10.66-2.22-14-6C250.31,165.37,209.8,176.18,201.31,187.64Z" style="fill:#ffbf9d"></path><g style="opacity:0.2"><path d="M86.57,291.11c10.14,5.91,22.41,6.78,34.14,6.51a35.36,35.36,0,0,0,9.57-1.18,13.28,13.28,0,0,0,7.64-5.57,207.29,207.29,0,0,0-51.13-.34"></path></g><path d="M135.37,291.66a4.74,4.74,0,0,0,4.4-3.81c.74-3.74,1.56-9.42.38-12.27-1.77-4.27-31.22-27.47-31.22-27.47a41.76,41.76,0,0,1-8.45,8.32c-4.19,2.83-21,14.17-20.51,23.22S83.85,290.27,95.26,292s16,.8,23.82.48C125.32,292.19,131.59,291.87,135.37,291.66Z" style="fill:#ffbf9d"></path><path d="M139.83,288.09a34.76,34.76,0,0,0,.67-8.76c-14.82,1.65-30.06,3.26-44.44-.68-2.64-.72-5.28-1.64-8-1.59s-5.66,1.31-6.78,3.81,0,5.86,2.17,7.64c0,0,3.13,5.05,20.85,4.47,16.07-.53,8.88,0,16.07-.53,4.76-.36,11.37-.68,15.3-.85A4.45,4.45,0,0,0,139.83,288.09Z" style="fill:#ff9a6c"></path><g style="opacity:0.2"><path d="M239.84,287.4a1.44,1.44,0,0,0-1-.26,556.18,556.18,0,0,0-60.28,1.41l-1.68,2.18c5.41,3.77,12.17,5.16,18.76,5.36s13.17-.7,19.75-1.09a116.6,116.6,0,0,0,12.4-1,24.22,24.22,0,0,0,11.38-4.66C239.83,288.87,240.42,287.93,239.84,287.4Z"></path></g><path d="M179.6,292.46a4.75,4.75,0,0,1-4.63-4.6c-.13-4.45-.3-10.83-.19-11.41.18-.92,67.48-1,67.48-.12v9.78a2.94,2.94,0,0,1-2.68,2.93C229.63,289.9,194.61,292.8,179.6,292.46Z" style="fill:#ff9a6c"></path><path d="M275.61,285.67l-2.78-8.1a.6.6,0,0,1,.51-.79l79.58-6.66a.61.61,0,0,1,.57.31l4.65,8.52a4.17,4.17,0,0,1-3.12,6.12c-7.25.94-19.22,2.47-25.23,3-33.52,3.11-41.78-.05-50.79,0A3.58,3.58,0,0,1,275.61,285.67Z" style="fill:#ff9a6c"></path><polygon points="193.32 213.43 182.59 248.68 176.13 246.96 188.83 212.41 193.32 213.43" style="fill:#ff9a6c"></polygon><g style="opacity:0.6000000000000001"><path d="M244.71,144.9c-1.07,8,1.69,20.17,10.88,23.88,7.54,3,16.56,2.85,23-2.07A26.13,26.13,0,0,0,317,181.79c3,8.62,8,16.8,15.36,22.21s17.35,7.69,25.93,4.53a21.72,21.72,0,0,0,9.26,15.41c3.51,2.38,9.54,4.74,13.88,3.6s9.91-4.43,12.52-8c-7.72,4.18-19.95,3.36-25.66-3s-6.09-16.28-2.82-24.2c-7.26,9.38-21.18,12.88-32,8.06s-17.57-17.49-15.48-29.17c-5.74,6.18-16.66,12.56-27.69,7.33a20.18,20.18,0,0,1-10.73-23.57c-5.2,7-10.79,13.51-21.43,11-9.75-2.26-12.07-11.88-13.36-21" style="fill:#ff9a6c"></path></g><path d="M444.64,252.5a45.38,45.38,0,0,0,1.84-14.72,40.81,40.81,0,0,0-4.09-11.91c-2.59-4.86-6.38-9.33-11.47-11.42-5.48-2.24-11.69-1.46-17.5-.31-7.64,1.51-15.47,2.06-21.65,6.79-4.36,3.33-7.36,4.62-8.86,14.43.16.72,0,3.88.26,4.74,2.08,8.24,1.75,11.38,12.71,19.93.3.26-.3-.25,0,0l-.66,6.47-1.87,16.78c-1.17,11.23-1.07,31.15-3.2,41.31s-1.07,33.12-16,39-29.39,3.21-51.83,3.74S256,370,234.13,373.21s-44.88-2.67-59.35-4.81-23.47-1.07-49.65,2.14-42.55-2.05-42.55-2.05c-4.89,2.24-8.89,18,2,20.21,12.41,2.5,306.68-3.74,314.7-12.29s15.69-86.85,15.69-86.85C428.25,280.45,440,268,444.64,252.5Z" style="fill:#ff9a6c"></path><g style="opacity:0.1"><path d="M321.85,367.23c-22.44.53-66.25,2.67-88.16,5.88s-44.88-2.68-59.35-4.81-23.47-1.07-49.65,2.13c-23.62,2.9-39.26-1.09-42.08-1.9A4.61,4.61,0,0,0,80,371.11c28.32,4.73,58.77,6.7,87.4,4.51,6.59-.51,13.21-1.2,19.81-.75,9.17.63,18.09,3.44,27.27,3.94,16.93.91,33.39-6.08,50.34-6.53,12.08-.31,24,2.7,36.08,3.06,8.62.25,17.22-.85,25.77-1.95,18.92-2.44,29.08-1.71,46.49-9.5C358.36,369.34,344.29,366.69,321.85,367.23Z"></path></g><path d="M334.45,149.47c.17.36-1.78,1.48-4.5,3.71a34.77,34.77,0,0,0-12.85,23.2c-.44,3.49-.36,5.73-.75,5.78s-1.07-2.16-1.08-5.9a29.41,29.41,0,0,1,13.61-24.58C332.06,149.71,334.33,149.18,334.45,149.47Z" style="fill:#ff9a6c"></path><path d="M298.62,135.06c.13.38-2,1.24-5,3.21A31.14,31.14,0,0,0,279.39,161c-.46,3.56-.31,5.84-.7,5.9s-1.14-2.19-1.13-6a27.4,27.4,0,0,1,15.15-24.18C296.16,135,298.54,134.76,298.62,135.06Z" style="fill:#ff9a6c"></path><path d="M375.32,181c.5.6-5.05,5.54-9.76,13.19s-6.79,14.76-7.55,14.58c-.32-.08-.25-2,.52-5a41.89,41.89,0,0,1,12.56-20.15C373.42,181.62,375.11,180.71,375.32,181Z" style="fill:#ff9a6c"></path><path d="M409.18,238.31c-.05,0,.24-.59,1.08-1.37a11.1,11.1,0,0,1,4.37-2.45,12.73,12.73,0,0,1,8,.19,12,12,0,0,1,7.14,7.85,11.1,11.1,0,0,1,0,6.41,13.41,13.41,0,0,1-3.71,5.81,25.26,25.26,0,0,1-13.37,6.09,30.62,30.62,0,0,1-16.1-1.71,25.13,25.13,0,0,1-7.44-4.52,23.53,23.53,0,0,1-5.44-7.19,23.77,23.77,0,0,1-2.27-8.73,20,20,0,0,1,1.4-8.69,20.29,20.29,0,0,1,4.77-7,27.92,27.92,0,0,1,6.52-4.67,42.58,42.58,0,0,1,14-4.12,68.48,68.48,0,0,1,12.54-.64,30.65,30.65,0,0,1,10.23,2.13,20.71,20.71,0,0,1,6.64,4.29,14.5,14.5,0,0,1,3,4,3.63,3.63,0,0,1,.55,1.64c-.11,0-.37-.48-1-1.38a17.31,17.31,0,0,0-3.2-3.51,20.83,20.83,0,0,0-6.49-3.68,30.7,30.7,0,0,0-9.77-1.66,73.07,73.07,0,0,0-12.16.94,41.34,41.34,0,0,0-13.14,4.11,25.42,25.42,0,0,0-5.9,4.32,18.16,18.16,0,0,0-4.16,6.19,17.76,17.76,0,0,0-1.17,7.59,20.7,20.7,0,0,0,6.84,14.14,22.93,22.93,0,0,0,6.68,4.09,28.58,28.58,0,0,0,14.78,1.7,23.4,23.4,0,0,0,12.25-5.29,11.61,11.61,0,0,0,3.28-4.85A9.35,9.35,0,0,0,428,243a10.54,10.54,0,0,0-5.91-7,12,12,0,0,0-7.18-.56,12.33,12.33,0,0,0-4.3,1.88C409.68,238,409.27,238.39,409.18,238.31Z" style="fill:#ffbf9d"></path><g style="opacity:0.30000000000000004"><path d="M174.62,323l-43.51,12.91c-4.1,5.2-2.73,17.73.34,23.6s6.64,9.56,12.93,11.62c8.57,2.81,20.34,2.42,28.13-2.13s13.52-12,13.77-21C186.62,335.87,181.85,328.35,174.62,323Z"></path></g><path d="M130.27,331.76c-4.11,5.2-2.73,17.73.33,23.61s6.64,9.55,12.94,11.61c8.57,2.81,20.34,2.42,28.13-2.13s13.51-12,13.77-21.05c.34-12-4.43-19.56-11.66-24.95" style="fill:#FF81AE"></path><path d="M173.78,318.85a27.42,27.42,0,0,1,3.83,3.17,28.34,28.34,0,0,1,3.69,4.53,26.3,26.3,0,0,1,3.18,7.05,33.47,33.47,0,0,1,1.17,9.31,22.56,22.56,0,0,1-2.43,10.46,28,28,0,0,1-7.62,9.11,30.94,30.94,0,0,1-5.32,3.41,29.81,29.81,0,0,1-6.15,2.13,40,40,0,0,1-12.74.8,32,32,0,0,1-11.48-3.09,20.33,20.33,0,0,1-7.81-7.35,29.76,29.76,0,0,1-2.32-4.32,28.25,28.25,0,0,1-1.33-4.31,31.06,31.06,0,0,1-.26-13.5,13.36,13.36,0,0,1,1.32-3.45l.56-.78c.12-.18.19-.27.2-.26a1.54,1.54,0,0,1-.16.29l-.51.8a14.28,14.28,0,0,0-1.21,3.45,31.38,31.38,0,0,0,.42,13.36,29.27,29.27,0,0,0,1.34,4.25,29.9,29.9,0,0,0,2.31,4.23,19.83,19.83,0,0,0,7.67,7.16,31.46,31.46,0,0,0,11.31,3,39.2,39.2,0,0,0,12.57-.8,28.56,28.56,0,0,0,6-2.09,30.61,30.61,0,0,0,5.23-3.34,27.59,27.59,0,0,0,7.51-8.93,22.17,22.17,0,0,0,2.43-10.24,34,34,0,0,0-1.09-9.21,26.54,26.54,0,0,0-6.67-11.53c-1.12-1.13-2.06-1.95-2.71-2.49l-.73-.61C173.85,318.93,173.77,318.86,173.78,318.85Z" style="fill:#263238"></path><g style="opacity:0.1"><path d="M174.89,345.17a5.62,5.62,0,0,0-6.44-3.17c-2.54.64-3.12,2.75-3.93,6-.82,1.63-2.87,2.17-4.69,2.36s-3.81.27-5.17,1.49a4.48,4.48,0,0,0-1,4.9,6.22,6.22,0,0,0,3.85,3.43,10.45,10.45,0,0,0,5.27.2,16.2,16.2,0,0,0,11.62-9.34A7.84,7.84,0,0,0,174.89,345.17Z"></path></g><path d="M300.74,333.52a24.64,24.64,0,0,1,25.16-33.18c.16,0,.16-.24,0-.25A25.49,25.49,0,0,0,308,305.73a24.69,24.69,0,0,0-8.87,16.73,25.23,25.23,0,0,0,1.38,11.13c.06.15.3.08.24-.07Z" style="fill:#263238"></path><path d="M123.56,318a1.32,1.32,0,0,1-.25.34c-.18.22-.43.55-.8.93a28.8,28.8,0,0,1-3.3,3.06,31.75,31.75,0,0,1-13.4,6.21A35.48,35.48,0,0,1,91,328.25a13.93,13.93,0,0,1-4.16-1.73,5.49,5.49,0,0,1-1-.77,1.52,1.52,0,0,1-.29-.31,1.46,1.46,0,0,1,.36.24,6.36,6.36,0,0,0,1,.66,15.18,15.18,0,0,0,4.15,1.55,37.06,37.06,0,0,0,14.6.12A32.72,32.72,0,0,0,119,322a34.07,34.07,0,0,0,3.39-2.9A11,11,0,0,1,123.56,318Z" style="fill:#263238"></path><g style="opacity:0.30000000000000004"><path d="M358.57,328.88a23.85,23.85,0,0,0-13.84-19.41L270.06,357c-2.46,6.54,1.57,14,7.09,18.24a29.28,29.28,0,0,0,47.23-23.66,23.38,23.38,0,0,0,34.19-22.67Z"></path></g><path d="M266.89,355c-2.53,6.71,1.6,14.32,7.27,18.72a30,30,0,0,0,48.45-24.27,24,24,0,1,0,20.88-43.17" style="fill:#FF81AE"></path><path d="M343.49,306.28l.36.14,1,.48a23.76,23.76,0,0,1,3.73,2.4,25.45,25.45,0,0,1,4.84,5.09,25,25,0,0,1,3.87,8.49,23.47,23.47,0,0,1-.16,11.31,25,25,0,0,1-6.47,11.31A23.51,23.51,0,0,1,337.85,352a25.71,25.71,0,0,1-7.74.09,24.5,24.5,0,0,1-7.62-2.44l.38-.24a30.57,30.57,0,0,1-8,20.88,29.24,29.24,0,0,1-13,8.44,31.19,31.19,0,0,1-14,1,30.34,30.34,0,0,1-11.49-4.26,23.36,23.36,0,0,1-7.3-7,18.26,18.26,0,0,1-2.88-7.07,12.45,12.45,0,0,1,.16-4.82,11.64,11.64,0,0,1,.52-1.61s-.18.56-.41,1.63a12.79,12.79,0,0,0-.07,4.77,18.24,18.24,0,0,0,2.92,6.94,23.29,23.29,0,0,0,7.26,6.83A30.24,30.24,0,0,0,288,379.32a31,31,0,0,0,13.8-1A28.77,28.77,0,0,0,314.51,370a30.09,30.09,0,0,0,7.84-20.53V349l.38.2a24.23,24.23,0,0,0,7.45,2.4,25.37,25.37,0,0,0,7.59-.09,23,23,0,0,0,12.6-6.36,24.57,24.57,0,0,0,6.39-11.09A23.11,23.11,0,0,0,357,323a24.65,24.65,0,0,0-3.75-8.4,25.16,25.16,0,0,0-4.74-5.11,25.51,25.51,0,0,0-3.64-2.46l-1-.52Z" style="fill:#263238"></path><g style="opacity:0.1"><path d="M349.71,329.37a5.62,5.62,0,0,0-6.44-3.17c-2.54.64-3.12,2.75-3.93,6-.82,1.63-2.87,2.17-4.69,2.36s-3.81.27-5.17,1.49a4.48,4.48,0,0,0-1,4.9,6.22,6.22,0,0,0,3.85,3.43,10.45,10.45,0,0,0,5.27.2,16.2,16.2,0,0,0,11.62-9.34A7.84,7.84,0,0,0,349.71,329.37Z"></path></g><g style="opacity:0.30000000000000004"><path d="M299.88,344.4c-.49-2.56-2.95-4.79-5.44-5.55a12,12,0,0,0-6,0c-1.75.35-3.27,1.21-5.76,2.63s-4.45,4.18-4,7a6.92,6.92,0,0,0,4.95,5.2,17.31,17.31,0,0,0,13.79-3A7,7,0,0,0,299.88,344.4Z" style="fill:#fff"></path></g><path d="M129.64,232.66l-.33.78a6.5,6.5,0,0,0-.09,3.95c.61,2.41,53,12.43,53,12.43l1.94-6.41Z" style="fill:#ff9a6c"></path><g style="opacity:0.30000000000000004"><path d="M289,204c-1.35-3.07-2.91-6.17-5.47-8.34a10.21,10.21,0,0,0-3.58-2,7,7,0,0,0-8.38,3.88,13.88,13.88,0,0,0-.26,10.29c1.67,4.92,5.25,8.93,8.89,12.62,2.07,2.09,4.66,4.31,7.76,3A6,6,0,0,0,291,220C293,214.67,291.16,209.06,289,204Z" style="fill:#fff"></path></g><path d="M302.9,205.26a4.24,4.24,0,1,1-4.24-4.24A4.24,4.24,0,0,1,302.9,205.26Z" style="fill:#fff;opacity:0.30000000000000004"></path><g style="opacity:0.30000000000000004"><path d="M162.58,259.78a12.51,12.51,0,0,0-3.9-2.12l-25.22-10c-1.76-.7-3.67-1.41-5.49-.9s-3.19,2.86-2,4.36c5.15,5.49,11.35,10.37,17.23,15.07,2.77,2.21,5.91,4.43,9.46,4.38,3,0,5.69-1.69,8.22-3.29,1.39-.87,2.88-1.9,3.25-3.5A4.25,4.25,0,0,0,162.58,259.78Z" style="fill:#fff"></path></g><g style="opacity:0.30000000000000004"><path d="M189.87,198.06a2.23,2.23,0,0,0-1.77-.19l0,0a22.38,22.38,0,0,0-7.07,4,4.87,4.87,0,0,0-1.34,1.45,1.9,1.9,0,0,0,0,1.89,2.88,2.88,0,0,0,2.09.93l3.08.44a5.81,5.81,0,0,0,3.58-.25,5.07,5.07,0,0,0,2-2.47,7.15,7.15,0,0,0,.81-3.06A3.18,3.18,0,0,0,189.87,198.06Z" style="fill:#fff"></path></g><g style="opacity:0.30000000000000004"><path d="M282.06,128.94c-.18-1.23-.9-1.87-2.26-2.63-2.23-1.23-3.45-1.29-6.65-1.39a22.5,22.5,0,0,0-14.35,4.66,20.47,20.47,0,0,0-7.5,12.93c-.32,2.14.08,4.87,2.13,5.56a3.8,3.8,0,0,0,3.94-1.56,19.69,19.69,0,0,0,2-4,17.53,17.53,0,0,1,15.85-9.91,12,12,0,0,0,4.44-.28A3.36,3.36,0,0,0,282.06,128.94Z" style="fill:#fff"></path></g><g style="opacity:0.30000000000000004"><path d="M317.26,139.42c-.18-1.24-.91-1.87-2.27-2.63-2.22-1.24-3.45-1.3-6.64-1.39A22.42,22.42,0,0,0,294,140.05,20.47,20.47,0,0,0,286.5,153c-.32,2.14.07,4.88,2.12,5.56a3.78,3.78,0,0,0,3.94-1.55,19.69,19.69,0,0,0,2-4,17.56,17.56,0,0,1,15.86-9.92,11.79,11.79,0,0,0,4.44-.28A3.36,3.36,0,0,0,317.26,139.42Z" style="fill:#fff"></path></g><g style="opacity:0.30000000000000004"><path d="M353.44,157.32c-.18-1.23-.9-1.87-2.27-2.62-2.22-1.24-3.45-1.3-6.64-1.4A22.49,22.49,0,0,0,330.18,158a20.47,20.47,0,0,0-7.5,12.93c-.32,2.14.07,4.87,2.12,5.56a3.77,3.77,0,0,0,3.94-1.56,19.36,19.36,0,0,0,2-4A17.55,17.55,0,0,1,346.63,161a12,12,0,0,0,4.44-.28A3.36,3.36,0,0,0,353.44,157.32Z" style="fill:#fff"></path></g><g style="opacity:0.30000000000000004"><path d="M397.25,186.14c-.18-1.23-.9-1.87-2.27-2.63-2.22-1.23-3.45-1.29-6.64-1.39A22.43,22.43,0,0,0,374,186.78a20.47,20.47,0,0,0-7.5,12.93c-.32,2.14.07,4.87,2.12,5.56a3.79,3.79,0,0,0,3.94-1.56,19.19,19.19,0,0,0,2-4,17.54,17.54,0,0,1,15.86-9.91,12,12,0,0,0,4.44-.28A3.36,3.36,0,0,0,397.25,186.14Z" style="fill:#fff"></path></g><g style="opacity:0.30000000000000004"><path d="M250.33,178.14a5.07,5.07,0,0,0-3.71-3.71,14.87,14.87,0,0,0-5.49-.24,96.7,96.7,0,0,0-19,4.41c-6.07,2.19-11.83,5.74-15.57,11-4.17,5.87-5.47,13.23-6.67,20.33-.23,1.35-.41,2.89.44,4,1.4,1.76,4.32.83,5.94-.73,3.5-3.35,4.58-8.49,7.33-12.49,3.5-5.08,9.42-7.91,15.27-9.88s12-3.34,17.29-6.51C248.46,182.94,250.76,180.73,250.33,178.14Z" style="fill:#fff"></path></g><path d="M208.5,285.07a2.86,2.86,0,1,1-2.86-2.86A2.86,2.86,0,0,1,208.5,285.07Z" style="opacity:0.2"></path><path d="M94.47,283.91a2.86,2.86,0,1,1-2.85-2.85A2.86,2.86,0,0,1,94.47,283.91Z" style="opacity:0.2"></path><circle cx="97.06" cy="288.64" r="1.86" style="opacity:0.2"></circle><path d="M215.77,283.23c-.24,1-1.49,1.49-2.79,1.16s-2.17-1.37-1.93-2.33,1.49-1.48,2.79-1.16S216,282.27,215.77,283.23Z" style="opacity:0.2"></path><path d="M131.38,287c-.23,1-1.49,1.48-2.79,1.16s-2.17-1.37-1.93-2.33,1.49-1.48,2.79-1.16S131.62,286.07,131.38,287Z" style="opacity:0.2"></path><g style="opacity:0.30000000000000004"><path d="M120.52,262.88a63.29,63.29,0,0,0-9.54-9,2.25,2.25,0,0,0-3.13.35c-2.52,3.15-6.47,5.41-9.91,7.44-4.06,2.4-8.25,5.48-9.39,10.05A106.1,106.1,0,0,0,118.31,268c1.48-.41,3.17-1,3.07-3A3.46,3.46,0,0,0,120.52,262.88Z" style="fill:#fff"></path></g><g style="opacity:0.30000000000000004"><path d="M183.37,214.71a26.62,26.62,0,0,0-16.2-3.73c-9.26,1.07-15.41,5-22,11.57-.44.43-.9,1-.76,1.57.21.93,1.5,1,2.43.75,6.26-1.41,12.3-3.85,18.67-4.64,5.91-.73,12.11-.06,17.62-2.33.72-.29,1.54-.8,1.55-1.58S184,215.08,183.37,214.71Z" style="fill:#fff"></path></g><path d="M206.25,234a3.17,3.17,0,0,0-3.93-1c-1.29.73-1.57,3.13-.73,4.35a2.92,2.92,0,0,0,3.94.67A3,3,0,0,0,206.25,234Z" style="fill:#ff9a6c"></path><path d="M212.69,230.77a2.15,2.15,0,0,0-2.67-.71,2.3,2.3,0,0,0-.49,2.95,2,2,0,0,0,2.67.45A2.05,2.05,0,0,0,212.69,230.77Z" style="fill:#ff9a6c"></path><path d="M210.8,240.74a2.15,2.15,0,0,0-2.67-.71,2.29,2.29,0,0,0-.5,2.95,2,2,0,0,0,2.68.45A2.07,2.07,0,0,0,210.8,240.74Z" style="fill:#ff9a6c"></path><path d="M297.46,265.8a2.16,2.16,0,0,0-2.67-.72,2.29,2.29,0,0,0-.49,2.95,2,2,0,0,0,2.67.46A2.05,2.05,0,0,0,297.46,265.8Z" style="fill:#ff9a6c"></path><path d="M303.39,259.48a2.15,2.15,0,0,0-2.67-.71,2.3,2.3,0,0,0-.5,3,2,2,0,0,0,2.68.46A2.07,2.07,0,0,0,303.39,259.48Z" style="fill:#ff9a6c"></path><g style="opacity:0.2"><path d="M398.22,357.81a3.17,3.17,0,0,0-3.93-1c-1.3.72-1.57,3.12-.74,4.34a2.9,2.9,0,0,0,3.94.67A3,3,0,0,0,398.22,357.81Z"></path></g><g style="opacity:0.2"><path d="M264.42,377.34a3.16,3.16,0,0,0-3.93-1c-1.29.72-1.57,3.12-.73,4.34a2.9,2.9,0,0,0,3.94.67A3,3,0,0,0,264.42,377.34Z"></path></g><g style="opacity:0.2"><path d="M92.48,381a3.17,3.17,0,0,0-3.93-1c-1.29.73-1.57,3.12-.73,4.35a2.92,2.92,0,0,0,3.94.67A3,3,0,0,0,92.48,381Z"></path></g><g style="opacity:0.2"><path d="M255.77,379.87a2.31,2.31,0,0,0-2.86-.76,2.46,2.46,0,0,0-.53,3.15,2.12,2.12,0,0,0,2.86.49A2.2,2.2,0,0,0,255.77,379.87Z"></path></g><g style="opacity:0.2"><path d="M96.88,379.46a1.34,1.34,0,0,0-1.67-.44,1.43,1.43,0,0,0-.31,1.84,1.23,1.23,0,0,0,1.67.28A1.27,1.27,0,0,0,96.88,379.46Z"></path></g><g style="opacity:0.2"><path d="M396.41,350.83a2,2,0,0,0-2.55-.68,2.18,2.18,0,0,0-.47,2.82,1.88,1.88,0,0,0,2.55.43A2,2,0,0,0,396.41,350.83Z"></path></g><g style="opacity:0.2"><path d="M390,358.76a1.46,1.46,0,0,0-1.82-.49,1.56,1.56,0,0,0-.34,2,1.35,1.35,0,0,0,1.83.31A1.4,1.4,0,0,0,390,358.76Z"></path></g><g style="opacity:0.30000000000000004"><path d="M86.37,326.25a23,23,0,0,0,34.7-5.33,44.5,44.5,0,0,1-16.68,7.49,28.78,28.78,0,0,1-18-2"></path></g><path d="M253.68,295.19l.23.2.64.6a22.6,22.6,0,0,1,2.18,2.6,23.9,23.9,0,0,1,4.17,11.68,26.09,26.09,0,0,1,0,4.15,27.9,27.9,0,0,1-.8,4.44,27,27,0,0,1-4.43,8.86,29.29,29.29,0,0,1-8.08,7.37,30.12,30.12,0,0,1-11,4.07,29,29,0,0,1-11.73-.52,27.06,27.06,0,0,1-9.81-4.83,25.73,25.73,0,0,1-8.51-11.47,27.06,27.06,0,0,1-1.08-4A24.5,24.5,0,0,1,206.4,306a21.52,21.52,0,0,1,1.36-3.11l.45-.76c.1-.17.15-.26.16-.25a1,1,0,0,1-.12.27l-.39.79a23.85,23.85,0,0,0-1.27,3.13,24.72,24.72,0,0,0-.76,12.23,26.22,26.22,0,0,0,1.09,3.94,25.58,25.58,0,0,0,1.93,4,26.74,26.74,0,0,0,16.14,12,28.49,28.49,0,0,0,11.52.49,29.69,29.69,0,0,0,10.83-4,29,29,0,0,0,8-7.22,26.6,26.6,0,0,0,4.39-8.69,25.92,25.92,0,0,0,.82-4.35,25.44,25.44,0,0,0,0-4.09,24.31,24.31,0,0,0-4-11.59,23.8,23.8,0,0,0-2.1-2.64c-.24-.27-.44-.48-.6-.64S253.67,295.2,253.68,295.19Z" style="fill:#263238"></path><circle cx="140.55" cy="306.36" r="8.08" transform="translate(-175.46 189.11) rotate(-45)" style="opacity:0.1"></circle><circle cx="250.84" cy="354.98" r="11.4" transform="translate(-166.55 233.67) rotate(-38.55)" style="opacity:0.1"></circle><path d="M160.25,305.26a3.07,3.07,0,1,1-.22-4.34A3.07,3.07,0,0,1,160.25,305.26Z" style="opacity:0.30000000000000004"></path><circle cx="262.07" cy="335.09" r="4.63" style="opacity:0.30000000000000004"></circle><circle cx="370.25" cy="259.63" r="4.63" style="opacity:0.30000000000000004"></circle><path d="M168.49,268.5a3.21,3.21,0,1,1,.43,4.52A3.22,3.22,0,0,1,168.49,268.5Z" style="opacity:0.30000000000000004"></path><path d="M170.14,263.24a1.6,1.6,0,1,1,.21,2.26A1.6,1.6,0,0,1,170.14,263.24Z" style="opacity:0.30000000000000004"></path><circle cx="372.36" cy="249.82" r="2.76" style="opacity:0.30000000000000004"></circle><path d="M149,347.91a4.64,4.64,0,1,1-4.63-4.63A4.64,4.64,0,0,1,149,347.91Z" style="opacity:0.30000000000000004"></path><path d="M275.11,331.89a2.32,2.32,0,1,1-2.31-2.31A2.31,2.31,0,0,1,275.11,331.89Z" style="opacity:0.30000000000000004"></path><path d="M259.76,287.92a2.32,2.32,0,1,1-2.32-2.31A2.32,2.32,0,0,1,259.76,287.92Z" style="opacity:0.30000000000000004"></path><path d="M357.57,300.13a2.32,2.32,0,1,1-2.32-2.32A2.31,2.31,0,0,1,357.57,300.13Z" style="opacity:0.30000000000000004"></path><g style="opacity:0.1"><path d="M229,353c-2.19-3.92-6.25-6.39-10.34-8.24s-8.41-3.28-12-5.92c-1.51-1.64-5.09-1.18-6.88.16s-2.82,3.44-3.78,5.46q-2.15,4.55-4.3,9.08c-.87,1.84-1.76,3.94-1,5.84s3.06,2.95,5.13,3.59a84.49,84.49,0,0,0,23.51,3.75c2.7,0,5.58-.09,7.8-1.62C230.81,362.56,231.21,356.91,229,353Z"></path></g><g style="opacity:0.1"><path d="M123.14,355.3q-.81-6.1-1.88-12.18c-.44-2.46-1.2-5.31-3.53-6.23-1.84-.73-3.9.1-5.71.91l-12.36,5.58c-4.14,1.86-8.45,3.86-11.17,7.48s-3.17,9.39.27,12.34c5.21,4.36,18,4.83,27.07,2.74,2.62-.6,5.43-1.61,6.74-3.95C123.69,360,123.45,357.56,123.14,355.3Z"></path></g><g style="opacity:0.30000000000000004"><path d="M133.12,339.27a23.66,23.66,0,0,1,28.55-24.46c1.24.26,2.76,1.09,2.48,2.33-.21.94-1.32,1.3-2.25,1.53a43.77,43.77,0,0,0-27.1,20.63" style="fill:#fff"></path></g><g style="opacity:0.30000000000000004"><path d="M330.38,304.45a23.66,23.66,0,0,0-28.55,24.46l1.68,0a43.78,43.78,0,0,1,27.1-20.64c.93-.23,2-.59,2.25-1.53C333.14,305.54,331.62,304.72,330.38,304.45Z" style="fill:#fff"></path></g></g></svg>
